<mxfile host="app.diagrams.net" modified="2022-03-09T15:54:35.098Z" agent="5.0 (Windows NT 10.0; Win64; x64) AppleWebKit/537.36 (KHTML, like Gecko) Chrome/99.0.4844.51 Safari/537.36" etag="gBX6evHqQ0qBMW2oCWVn" version="16.6.3" type="github">
  <diagram name="vista logica" id="srLj2UoJQicth1ngkIAV">
    <mxGraphModel dx="1278" dy="575" grid="0" gridSize="10" guides="1" tooltips="1" connect="1" arrows="1" fold="1" page="1" pageScale="1" pageWidth="827" pageHeight="1169" math="0" shadow="0">
      <root>
        <mxCell id="PnaxFP9u9YeIpnLwT5Nx-0" />
        <mxCell id="PnaxFP9u9YeIpnLwT5Nx-1" parent="PnaxFP9u9YeIpnLwT5Nx-0" />
        <mxCell id="PnaxFP9u9YeIpnLwT5Nx-2" value="" style="rounded=0;whiteSpace=wrap;html=1;" parent="PnaxFP9u9YeIpnLwT5Nx-1" vertex="1">
          <mxGeometry x="50" y="140" width="430" height="80" as="geometry" />
        </mxCell>
        <mxCell id="PnaxFP9u9YeIpnLwT5Nx-3" value="&lt;font face=&quot;Verdana&quot;&gt;Presentación&lt;/font&gt;" style="rounded=0;whiteSpace=wrap;html=1;" parent="PnaxFP9u9YeIpnLwT5Nx-1" vertex="1">
          <mxGeometry x="50" y="110" width="120" height="30" as="geometry" />
        </mxCell>
        <mxCell id="PnaxFP9u9YeIpnLwT5Nx-4" value="" style="rounded=0;whiteSpace=wrap;html=1;" parent="PnaxFP9u9YeIpnLwT5Nx-1" vertex="1">
          <mxGeometry x="50" y="270" width="430" height="90" as="geometry" />
        </mxCell>
        <mxCell id="PnaxFP9u9YeIpnLwT5Nx-5" value="&lt;font face=&quot;Verdana&quot;&gt;Aplicación&lt;/font&gt;" style="rounded=0;whiteSpace=wrap;html=1;" parent="PnaxFP9u9YeIpnLwT5Nx-1" vertex="1">
          <mxGeometry x="50" y="240" width="120" height="30" as="geometry" />
        </mxCell>
        <mxCell id="PnaxFP9u9YeIpnLwT5Nx-6" value="" style="rounded=0;whiteSpace=wrap;html=1;" parent="PnaxFP9u9YeIpnLwT5Nx-1" vertex="1">
          <mxGeometry x="50" y="570" width="430" height="90" as="geometry" />
        </mxCell>
        <mxCell id="PnaxFP9u9YeIpnLwT5Nx-7" value="&lt;font face=&quot;Verdana&quot;&gt;Infraestructura de Persistencia de Datos&lt;/font&gt;" style="rounded=0;whiteSpace=wrap;html=1;" parent="PnaxFP9u9YeIpnLwT5Nx-1" vertex="1">
          <mxGeometry x="50" y="540" width="260" height="30" as="geometry" />
        </mxCell>
        <mxCell id="PnaxFP9u9YeIpnLwT5Nx-8" value="" style="endArrow=classic;html=1;exitX=0.602;exitY=0;exitDx=0;exitDy=0;exitPerimeter=0;" parent="PnaxFP9u9YeIpnLwT5Nx-1" edge="1">
          <mxGeometry width="50" height="50" relative="1" as="geometry">
            <mxPoint x="312" y="360" as="sourcePoint" />
            <mxPoint x="310.8600000000001" y="420" as="targetPoint" />
            <Array as="points" />
          </mxGeometry>
        </mxCell>
        <mxCell id="PnaxFP9u9YeIpnLwT5Nx-9" value="" style="rounded=0;whiteSpace=wrap;html=1;" parent="PnaxFP9u9YeIpnLwT5Nx-1" vertex="1">
          <mxGeometry x="510" y="140" width="150" height="520" as="geometry" />
        </mxCell>
        <mxCell id="PnaxFP9u9YeIpnLwT5Nx-11" value="Estado del Usuario" style="shape=folder;fontStyle=1;spacingTop=10;tabWidth=40;tabHeight=14;tabPosition=left;html=1;" parent="PnaxFP9u9YeIpnLwT5Nx-1" vertex="1">
          <mxGeometry x="205" y="280" width="120" height="70" as="geometry" />
        </mxCell>
        <mxCell id="PnaxFP9u9YeIpnLwT5Nx-15" value="&lt;font face=&quot;Verdana&quot;&gt;Vistas&lt;/font&gt;" style="shape=folder;fontStyle=1;spacingTop=10;tabWidth=40;tabHeight=14;tabPosition=left;html=1;" parent="PnaxFP9u9YeIpnLwT5Nx-1" vertex="1">
          <mxGeometry x="70" y="147.5" width="115" height="65" as="geometry" />
        </mxCell>
        <mxCell id="PnaxFP9u9YeIpnLwT5Nx-17" value="" style="endArrow=classic;html=1;exitX=0.5;exitY=1;exitDx=0;exitDy=0;exitPerimeter=0;" parent="PnaxFP9u9YeIpnLwT5Nx-1" edge="1">
          <mxGeometry width="50" height="50" relative="1" as="geometry">
            <mxPoint x="264.5" y="212.5" as="sourcePoint" />
            <mxPoint x="264.5" y="268.5" as="targetPoint" />
            <Array as="points" />
          </mxGeometry>
        </mxCell>
        <mxCell id="PnaxFP9u9YeIpnLwT5Nx-18" value="&lt;font face=&quot;Verdana&quot;&gt;Infraestructura transversal&lt;/font&gt;" style="rounded=0;whiteSpace=wrap;html=1;" parent="PnaxFP9u9YeIpnLwT5Nx-1" vertex="1">
          <mxGeometry x="510" y="110" width="150" height="30" as="geometry" />
        </mxCell>
        <mxCell id="PnaxFP9u9YeIpnLwT5Nx-19" value="" style="endArrow=open;html=1;exitX=1;exitY=0.5;exitDx=0;exitDy=0;dashed=1;endFill=0;" parent="PnaxFP9u9YeIpnLwT5Nx-1" source="PnaxFP9u9YeIpnLwT5Nx-2" edge="1">
          <mxGeometry width="50" height="50" relative="1" as="geometry">
            <mxPoint x="490" y="154.98000000000002" as="sourcePoint" />
            <mxPoint x="510" y="180" as="targetPoint" />
            <Array as="points" />
          </mxGeometry>
        </mxCell>
        <mxCell id="PnaxFP9u9YeIpnLwT5Nx-20" value="&lt;font face=&quot;Verdana&quot;&gt;Controladores&lt;/font&gt;" style="shape=folder;fontStyle=1;spacingTop=10;tabWidth=40;tabHeight=14;tabPosition=left;html=1;" parent="PnaxFP9u9YeIpnLwT5Nx-1" vertex="1">
          <mxGeometry x="205" y="147.5" width="120" height="65" as="geometry" />
        </mxCell>
        <mxCell id="PnaxFP9u9YeIpnLwT5Nx-24" value="&lt;font face=&quot;Verdana&quot;&gt;Repositorio&lt;/font&gt;" style="shape=folder;fontStyle=1;spacingTop=10;tabWidth=40;tabHeight=14;tabPosition=left;html=1;" parent="PnaxFP9u9YeIpnLwT5Nx-1" vertex="1">
          <mxGeometry x="70" y="580" width="120" height="70" as="geometry" />
        </mxCell>
        <mxCell id="PnaxFP9u9YeIpnLwT5Nx-25" value="&lt;font face=&quot;Verdana&quot;&gt;Persistencia&lt;/font&gt;" style="shape=folder;fontStyle=1;spacingTop=10;tabWidth=40;tabHeight=14;tabPosition=left;html=1;" parent="PnaxFP9u9YeIpnLwT5Nx-1" vertex="1">
          <mxGeometry x="205" y="580" width="120" height="70" as="geometry" />
        </mxCell>
        <mxCell id="PnaxFP9u9YeIpnLwT5Nx-26" value="Sesión" style="shape=folder;fontStyle=1;spacingTop=10;tabWidth=40;tabHeight=14;tabPosition=left;html=1;" parent="PnaxFP9u9YeIpnLwT5Nx-1" vertex="1">
          <mxGeometry x="70" y="280" width="120" height="70" as="geometry" />
        </mxCell>
        <mxCell id="PnaxFP9u9YeIpnLwT5Nx-27" value="" style="endArrow=open;html=1;exitX=1;exitY=0.5;exitDx=0;exitDy=0;dashed=1;endFill=0;" parent="PnaxFP9u9YeIpnLwT5Nx-1" edge="1">
          <mxGeometry width="50" height="50" relative="1" as="geometry">
            <mxPoint x="481" y="316.5" as="sourcePoint" />
            <mxPoint x="510" y="316.5" as="targetPoint" />
            <Array as="points" />
          </mxGeometry>
        </mxCell>
        <mxCell id="PnaxFP9u9YeIpnLwT5Nx-29" value="" style="endArrow=open;html=1;exitX=1;exitY=0.5;exitDx=0;exitDy=0;dashed=1;endFill=0;" parent="PnaxFP9u9YeIpnLwT5Nx-1" edge="1">
          <mxGeometry width="50" height="50" relative="1" as="geometry">
            <mxPoint x="481" y="464" as="sourcePoint" />
            <mxPoint x="510" y="464" as="targetPoint" />
            <Array as="points" />
          </mxGeometry>
        </mxCell>
        <mxCell id="T1233Q64m5WWv64LnRYd-0" value="&lt;font style=&quot;font-size: 12px&quot; face=&quot;Verdana&quot;&gt;Seguridad&lt;/font&gt;" style="shape=folder;fontStyle=1;spacingTop=10;tabWidth=40;tabHeight=20;tabPosition=left;html=1;" parent="PnaxFP9u9YeIpnLwT5Nx-1" vertex="1">
          <mxGeometry x="520" y="190" width="130" height="80" as="geometry" />
        </mxCell>
        <mxCell id="T1233Q64m5WWv64LnRYd-1" value="" style="rounded=0;whiteSpace=wrap;html=1;" parent="PnaxFP9u9YeIpnLwT5Nx-1" vertex="1">
          <mxGeometry x="50" y="420" width="430" height="90" as="geometry" />
        </mxCell>
        <mxCell id="T1233Q64m5WWv64LnRYd-2" value="&lt;font face=&quot;Verdana&quot;&gt;Dominio&lt;/font&gt;" style="rounded=0;whiteSpace=wrap;html=1;" parent="PnaxFP9u9YeIpnLwT5Nx-1" vertex="1">
          <mxGeometry x="50" y="390" width="120" height="30" as="geometry" />
        </mxCell>
        <mxCell id="T1233Q64m5WWv64LnRYd-3" value="" style="endArrow=open;html=1;exitX=1;exitY=0.5;exitDx=0;exitDy=0;dashed=1;endFill=0;" parent="PnaxFP9u9YeIpnLwT5Nx-1" edge="1">
          <mxGeometry width="50" height="50" relative="1" as="geometry">
            <mxPoint x="481" y="610" as="sourcePoint" />
            <mxPoint x="510" y="610" as="targetPoint" />
            <Array as="points" />
          </mxGeometry>
        </mxCell>
        <mxCell id="T1233Q64m5WWv64LnRYd-4" value="&lt;span style=&quot;font-family: &amp;#34;verdana&amp;#34;&quot;&gt;Contratos de&lt;/span&gt;&lt;br style=&quot;font-family: &amp;#34;verdana&amp;#34;&quot;&gt;&lt;span style=&quot;font-family: &amp;#34;verdana&amp;#34;&quot;&gt;repositorios&lt;/span&gt;" style="shape=folder;fontStyle=1;spacingTop=10;tabWidth=40;tabHeight=14;tabPosition=left;html=1;" parent="PnaxFP9u9YeIpnLwT5Nx-1" vertex="1">
          <mxGeometry x="70" y="430" width="120" height="70" as="geometry" />
        </mxCell>
        <mxCell id="T1233Q64m5WWv64LnRYd-5" value="&lt;span style=&quot;font-family: &amp;#34;verdana&amp;#34;&quot;&gt;Entidades del&lt;/span&gt;&lt;br style=&quot;font-family: &amp;#34;verdana&amp;#34;&quot;&gt;&lt;span style=&quot;font-family: &amp;#34;verdana&amp;#34;&quot;&gt;dominio&lt;/span&gt;" style="shape=folder;fontStyle=1;spacingTop=10;tabWidth=40;tabHeight=14;tabPosition=left;html=1;" parent="PnaxFP9u9YeIpnLwT5Nx-1" vertex="1">
          <mxGeometry x="205" y="430" width="120" height="70" as="geometry" />
        </mxCell>
        <mxCell id="T1233Q64m5WWv64LnRYd-6" value="" style="endArrow=classic;html=1;exitX=0.602;exitY=0;exitDx=0;exitDy=0;exitPerimeter=0;" parent="PnaxFP9u9YeIpnLwT5Nx-1" edge="1">
          <mxGeometry width="50" height="50" relative="1" as="geometry">
            <mxPoint x="325.0000000000001" y="570" as="sourcePoint" />
            <mxPoint x="326.14" y="510" as="targetPoint" />
            <Array as="points" />
          </mxGeometry>
        </mxCell>
        <mxCell id="T1233Q64m5WWv64LnRYd-7" value="&lt;font style=&quot;font-size: 12px ; line-height: 0.1 ; background-color: rgb(255 , 255 , 255)&quot;&gt;DB&lt;/font&gt;" style="strokeWidth=2;html=1;shape=mxgraph.flowchart.database;whiteSpace=wrap;fontFamily=Verdana;fontSize=12;strokeColor=#B3B3B3;" parent="PnaxFP9u9YeIpnLwT5Nx-1" vertex="1">
          <mxGeometry x="235" y="690" width="60" height="60" as="geometry" />
        </mxCell>
        <mxCell id="T1233Q64m5WWv64LnRYd-8" value="" style="endArrow=classic;html=1;exitX=-0.002;exitY=0.078;exitDx=0;exitDy=0;exitPerimeter=0;entryX=-0.002;entryY=0.078;entryDx=0;entryDy=0;entryPerimeter=0;dashed=1;" parent="PnaxFP9u9YeIpnLwT5Nx-1" target="PnaxFP9u9YeIpnLwT5Nx-6" edge="1">
          <mxGeometry width="50" height="50" relative="1" as="geometry">
            <mxPoint x="61.139999999999986" y="360" as="sourcePoint" />
            <mxPoint x="60.000000000000114" y="420" as="targetPoint" />
            <Array as="points">
              <mxPoint x="10" y="460" />
            </Array>
          </mxGeometry>
        </mxCell>
        <mxCell id="T1233Q64m5WWv64LnRYd-9" value="" style="endArrow=classic;html=1;" parent="PnaxFP9u9YeIpnLwT5Nx-1" edge="1">
          <mxGeometry width="50" height="50" relative="1" as="geometry">
            <mxPoint x="251" y="690" as="sourcePoint" />
            <mxPoint x="251.13999999999987" y="660" as="targetPoint" />
            <Array as="points" />
          </mxGeometry>
        </mxCell>
        <mxCell id="T1233Q64m5WWv64LnRYd-10" value="" style="endArrow=classic;html=1;exitX=0.602;exitY=0;exitDx=0;exitDy=0;exitPerimeter=0;entryX=0.5;entryY=0;entryDx=0;entryDy=0;entryPerimeter=0;dashed=1;" parent="PnaxFP9u9YeIpnLwT5Nx-1" target="T1233Q64m5WWv64LnRYd-7" edge="1">
          <mxGeometry width="50" height="50" relative="1" as="geometry">
            <mxPoint x="265.5699999999999" y="650" as="sourcePoint" />
            <mxPoint x="264" y="680" as="targetPoint" />
            <Array as="points" />
          </mxGeometry>
        </mxCell>
        <mxCell id="wtlp1_HROqo9ZnYrd667-0" value="&lt;font style=&quot;font-size: 12px&quot; face=&quot;Verdana&quot;&gt;Log4J&lt;br&gt;&lt;/font&gt;" style="shape=folder;fontStyle=1;spacingTop=10;tabWidth=40;tabHeight=20;tabPosition=left;html=1;" vertex="1" parent="PnaxFP9u9YeIpnLwT5Nx-1">
          <mxGeometry x="520" y="296" width="130" height="80" as="geometry" />
        </mxCell>
        <mxCell id="wtlp1_HROqo9ZnYrd667-1" value="&lt;font style=&quot;font-size: 12px&quot; face=&quot;Verdana&quot;&gt;Auditoria&lt;/font&gt;" style="shape=folder;fontStyle=1;spacingTop=10;tabWidth=40;tabHeight=20;tabPosition=left;html=1;" vertex="1" parent="PnaxFP9u9YeIpnLwT5Nx-1">
          <mxGeometry x="520" y="392" width="130" height="80" as="geometry" />
        </mxCell>
      </root>
    </mxGraphModel>
  </diagram>
</mxfile>
